<?xml version="1.0" encoding="UTF-8" standalone="no"?>
<!-- Created with Inkscape (http://www.inkscape.org/) -->

<svg
   version="1.1"
   id="svg2"
   width="1106.1733"
   height="484"
   viewBox="0 0 1106.1733 484"
   sodipodi:docname="2205_m01_i006_n017.eps"
   xmlns:inkscape="http://www.inkscape.org/namespaces/inkscape"
   xmlns:sodipodi="http://sodipodi.sourceforge.net/DTD/sodipodi-0.dtd"
   xmlns="http://www.w3.org/2000/svg"
   xmlns:svg="http://www.w3.org/2000/svg">
  <defs
     id="defs6" />
  <sodipodi:namedview
     id="namedview4"
     pagecolor="#ffffff"
     bordercolor="#000000"
     borderopacity="0.25"
     inkscape:showpageshadow="2"
     inkscape:pageopacity="0.0"
     inkscape:pagecheckerboard="0"
     inkscape:deskcolor="#d1d1d1" />
  <g
     id="g8"
     inkscape:groupmode="layer"
     inkscape:label="ink_ext_XXXXXX"
     transform="matrix(1.3333333,0,0,-1.3333333,0,484)">
    <g
       id="g10"
       transform="scale(0.1)">
      <path
         d="m 3995.79,2066.66 c -11.97,-2.87 -64.26,4.63 -88.34,17.81 l 18.99,364.51 h 131.95 z m -351.83,-99.61 c 11.13,3.83 63.69,0.3 88.57,-17.09 -2.37,-44.95 -15.29,-320.59 -22.17,-412.96 -35.1,-7.5 -109.62,10.77 -130.8,29.25 -3.5,3.05 -4.21,5.07 -4.1,5.71 z m 96,-150.76 c 2.05,43.68 6.53,133.83 6.56,134.41 13.28,15.24 49.35,15.24 73.46,15.24 23.57,0 58.7,-0.02 73.21,-15.17 2.47,-47.05 15.25,-322.89 21.98,-413.48 -59.7,-10.29 -123.8,-10.27 -190.85,0.12 6.84,92.07 11.13,182.88 15.64,278.88 z m 324.88,-247.06 c 0.55,-2.64 0.63,-6.42 -4.49,-11.36 -19.25,-18.62 -88.36,-29.14 -131.24,-20.66 -6.77,90.78 -10.9,180.34 -15.27,275.05 -2.08,45.13 -4.18,90.77 -6.61,137.12 24.28,12.77 76.49,20.05 88.59,17.28 z m -484.05,872.29 c -0.41,2.44 -0.66,4.94 -0.75,7.46 h 133.48 l 19.02,-365.08 c -24.85,-17.95 -77.5,-21.61 -88.55,-17.63 z m 346.41,21.4 h -6.86 l -35.96,17.79 101.79,-17.79 z m -121.25,26 h 30.42 l 52.55,-26 h -137.24 z m -59.42,-405.78 c -0.03,0.6 -17.5,355.64 -18.11,365.84 h 182.89 c -0.45,-7.42 -15.77,-319.74 -18.13,-365.91 -14.46,-15.65 -49.64,-15.67 -73.2,-15.67 -24.12,0 -60.19,0 -73.45,15.74 z m 228.7,-91.85 h -313.24 v 50.43 h 313.24 z m -255.8,471.63 h -64.98 l 101.62,17.55 z m -121.8,-205.3 32.98,-195.84 c 0.13,-0.75 0.43,-1.59 0.84,-2.44 2.53,-8.07 8.79,-14.18 16.62,-16.51 v -52.62 c -7.8,-2.28 -14.06,-8.24 -16.6,-16.11 -0.42,-0.85 -0.72,-1.68 -0.85,-2.42 l -64.59,-372.54 c -0.28,0 -1.06,-6.08 -1.06,-6.08 -0.05,-0.32 -3.73,-21.04 -4.13,-23.02 -4.57,-22.48 -8.52,-41.89 0.21,-52.58 2.49,-3.04 7.19,-6.66 15.47,-6.66 h 480.53 c 6.82,0 12.58,2.61 16.64,7.56 11.87,14.46 7.06,45.01 1.09,75.07 l -65.46,377.21 c -0.03,0.16 -0.1,0.32 -0.13,0.48 l -0.1,0.56 c -0.08,0.47 -0.25,1.07 -0.5,1.71 -2.65,9.12 -10.16,15.89 -19.43,17.51 v 51.22 c 9.29,1.65 16.81,8.59 19.45,17.93 0.25,0.65 0.41,1.24 0.49,1.73 l 0.09,0.54 c 0.03,0.18 0.11,0.34 0.14,0.52 l 43.61,259.2 14.11,-0.36 c 23.81,-0.59 46.32,7.39 64.35,22.41 l 35.61,29.67 c 14.2,11.84 35.21,10.48 47.74,-3.17 10.26,-11.15 12.09,-27.52 4.58,-40.76 -13.78,-24.29 -32.64,-61.53 -44.17,-100.99 -13.68,-46.77 -22.11,-102.99 -25.93,-132.33 -1.1,-8.49 -7.53,-15.14 -16.01,-16.55 l -3.55,-0.59 c -6.91,-1.16 -13.22,-4.71 -17.78,-10.01 -5.42,-6.3 -7.98,-14.66 -7.04,-22.93 0.96,-8.26 5.35,-15.82 12.06,-20.72 l 1.58,-1.16 c 8.17,-5.97 17.82,-9.08 27.65,-9.08 4.2,0 8.45,0.58 12.62,1.73 13.92,3.85 25.14,13.7 30.75,27.02 l 104.43,247.59 c 20.53,48.67 10.21,104.79 -26.28,142.97 -29.07,30.38 -71.27,45.24 -112.93,39.78 l -88.07,-11.56 -216.86,37.9 6.72,9.92 h 15.77 c 6.89,0 12.48,5.6 12.48,12.49 v 32.52 c 0,6.88 -5.59,12.48 -12.48,12.48 h -102.22 c -6.89,0 -12.48,-5.6 -12.48,-12.48 v -32.52 c 0,-6.89 5.59,-12.49 12.48,-12.49 h 15.77 l 6.7,-9.9 -301.67,-55.8 c -4.42,-0.89 -8.03,-4.1 -9.44,-8.38 -1.4,-4.28 -0.39,-9.02 2.66,-12.35 22.34,-24.53 96.49,-108.98 113.54,-166.77"
         style="fill:#1d1b19;fill-opacity:1;fill-rule:nonzero;stroke:none"
         id="path12" />
      <path
         d="m 552.48,1860.17 -135.031,54.19 6.246,15.56 135.289,-54.3 c -2.039,-5.1 -4.191,-10.25 -6.504,-15.45 z m 234.184,74.14 c 2.715,-44.73 30.625,-97.71 57.664,-149.03 25.953,-49.26 50.465,-95.79 50.465,-129.9 0,-49.96 -13.457,-89.44 -21.48,-108.51 -2.559,-6.08 -10.446,-10.33 -19.172,-10.33 H 520.82 c -8.73,0 -16.617,4.25 -19.175,10.33 -8.024,19.07 -21.481,58.55 -21.481,108.51 0,34.11 24.512,80.64 50.465,129.9 27.039,51.32 54.949,104.3 57.664,149.03 z m 57.242,88.94 -54.054,-75 H 585.184 l -54.051,75 z M 308.16,1928.46 c 1.961,0 3.836,0.47 5.641,1.15 l 78.125,-31.35 c 2.137,-0.86 4.367,-1.29 6.597,-1.29 2.36,0 4.711,0.48 6.95,1.43 2.027,0.87 3.816,2.11 5.351,3.61 l 135.821,-54.51 c -8.704,-18.41 -18.571,-37.18 -28.344,-55.73 -26.778,-50.83 -52.071,-98.84 -52.071,-136.39 0,-52.41 14.137,-93.87 22.571,-113.92 4.367,-10.39 15.652,-17.55 28.656,-18.63 l 12.18,-12.03 h 315.41 l 12.16,12.01 c 13.129,1 24.551,8.18 28.949,18.65 8.434,20.05 22.574,61.51 22.574,113.92 0,37.55 -25.292,85.56 -52.07,136.39 -27.215,51.65 -55.277,105.02 -56.191,147.38 l 60.808,84.37 c 6.418,0.71 11.489,5.96 11.489,12.56 0,0.94 -0.981,4.86 -0.981,4.86 -1.922,4.68 -6.496,7.98 -11.855,7.98 h -344 c -5.352,0 -9.926,-3.3 -11.848,-7.98 0,0 -0.984,-4.24 -0.984,-4.86 0,-6.25 4.586,-11.24 10.519,-12.36 l 60.875,-84.46 c -0.32,-15.6 -4.277,-32.66 -10.578,-50.6 l -136.078,54.61 c 0.074,2.53 -0.344,5.06 -1.367,7.46 -1.856,4.34 -5.293,7.71 -9.684,9.47 l -77.633,31.15 c -1.621,3.76 -4.664,6.9 -8.75,8.54 L 51.9805,2111.63 c -9.3789,3.76 -19.6641,3.65 -28.9727,-0.32 -9.3047,-3.98 -16.49608,-11.33 -20.26171,-20.71 -3.76953,-9.39 -3.656246,-19.69 0.32032,-28.99 3.97265,-9.29 11.32809,-16.49 20.71489,-20.26 L 302.203,1929.61 c 1.957,-0.78 3.973,-1.15 5.957,-1.15"
         style="fill:#1d1b19;fill-opacity:1;fill-rule:nonzero;stroke:none"
         id="path14" />
      <path
         d="m 6588.46,2023.91 h -436.68 v 5.94 h 436.68 z m -295.61,36.28 h 295.61 v -16.26 h -440.88 l -17.31,16.26 z m 64.51,265.39 h 76.31 c -59,-56.75 -105.72,-146.98 -129.9,-251.46 h -6.71 l -29.16,55.34 c 13.62,54.68 40.09,131.84 89.46,196.12 z m -156.22,0 c -4.42,-15.7 -8.21,-31.58 -11.52,-47.56 l -25.06,47.56 z m 179.7,-251.46 c 49.91,126.99 110.99,201.82 191.03,233.78 l -12.12,-14.5 -115.54,-219.28 z m -108.9,251.46 h 68 c -42.57,-58.6 -67.46,-125.82 -81.66,-177.85 l -28.96,54.94 c 11.55,46.21 25.89,87.5 42.62,122.91 z m -56.39,0 h 41.03 c -14.14,-30.93 -26.53,-65.96 -36.92,-104.57 l -19.81,37.6 c 4.06,22.5 9.38,44.96 15.7,66.97 z m 355.63,-46.66 c 19.11,16.31 36.08,22.63 47.74,17.81 10.63,-4.39 15.3,-16.74 16.12,-26.84 0.86,-10.48 -2.12,-19.72 -7.41,-22.99 -10.79,-6.68 -27.09,-13.63 -45.97,-21.67 -17.17,-7.31 -36.52,-15.6 -55.45,-25.38 l 40,75.92 c 1.73,0.81 3.41,1.82 4.97,3.15 z m -253.09,-204.8 c 25.32,107.03 74.62,198.15 136.26,251.46 h 122.36 l -0.62,-1.17 c -89.62,-31.71 -156.57,-111.42 -210.24,-250.29 z m 270.37,281.65 v -11.57 h -433.37 v 11.57 z m -11.69,31.35 -9.18,-17.41 h -393.92 l -9.17,17.41 z m 14.54,13.93 h -438.87 l -7.78,15.67 c 14.18,-0.65 41.79,-2.18 85.27,-5.76 41.94,-3.45 65.2,-2.54 94.65,-1.38 24.88,0.97 55.83,2.18 107.94,1.14 84.51,-1.71 139.61,-3.17 162.01,-3.8 z m -528.13,-798.68 57.61,298.49 c 4.55,23.61 14.19,46.18 27.82,65.72 h 442.84 c 13.63,-19.54 23.28,-42.11 27.83,-65.72 l 57.6,-298.49 c 4.32,-22.35 -0.64,-44.81 -13.26,-60.1 -9.34,-11.31 -22.07,-17.55 -35.84,-17.55 h -515.5 c -13.77,0 -26.49,6.24 -35.84,17.55 -12.61,15.29 -17.57,37.75 -13.26,60.1 z m 49.1,-91.57 h 515.5 c 18.01,0 34.55,8.02 46.58,22.6 15.25,18.46 21.3,45.23 16.21,71.61 l -51.09,264.74 c -1.84,18.09 -3.63,67.05 9.52,81.62 2.08,2.3 4.32,3.35 7.04,3.35 h 17.13 c 17.67,0 32.94,-13.24 35.53,-30.77 l 46.8,-318.98 c 1.77,-12.1 8.15,-22.78 17.94,-30.08 7.97,-5.94 17.43,-9.05 27.17,-9.05 2.24,0 4.5,0.16 6.75,0.49 l 2.41,0.35 c 11.43,1.68 19.37,12.37 17.69,23.81 l -50.4,343.52 c -7.53,51.25 -52.19,89.9 -103.89,89.9 h -70.78 v 43.24 c 0,3.85 -3.11,6.97 -6.96,6.97 h -135.47 l 16.1,30.56 c 0.5,0.82 1.08,1.58 1.49,2.49 16.33,36.77 73.76,61.37 119.89,81.14 20.69,8.86 38.55,16.52 51.35,24.43 18.65,11.55 28.55,33.6 26.48,58.98 -2.31,28.47 -18.75,53.03 -41.84,62.56 -8.07,3.34 -18.48,5.53 -31.04,3.99 v 24.47 c 0,3.85 -3.11,6.97 -6.96,6.97 h -12.09 l 9.17,17.41 h 2.92 c 2.54,0 4.88,1.38 6.1,3.61 l 10.7,19.47 c 0.53,1.23 0.85,2.23 0.85,3.34 -0.11,1.34 -0.38,2.26 -0.81,3.11 -0.19,0.53 -0.38,0.61 -0.49,0.77 -0.46,0.67 -1.02,1.23 -1.68,1.71 -0.23,0.16 -0.42,0.34 -0.67,0.48 -0.9,0.49 -1.88,0.85 -2.98,0.9 -2.83,0.14 -283.83,13.39 -349.41,20.63 -67.16,7.41 -123.54,-9.64 -125.9,-10.36 -0.23,-0.07 -0.37,-0.28 -0.58,-0.37 -0.61,-0.25 -1.09,-0.6 -1.6,-1.01 -0.43,-0.35 -0.83,-0.66 -1.17,-1.09 -0.14,-0.18 -0.36,-0.27 -0.49,-0.46 -0.23,-0.38 -0.22,-0.82 -0.38,-1.22 -0.15,-0.35 -0.44,-0.62 -0.52,-1 -0.05,-0.19 0.05,-0.38 0.02,-0.57 -0.09,-0.64 -0.01,-1.23 0.08,-1.87 0.08,-0.57 0.12,-1.1 0.34,-1.62 0.07,-0.18 0.03,-0.38 0.11,-0.55 l 14.93,-30.04 c 1.19,-2.37 3.6,-3.86 6.24,-3.86 h 0.64 l 9.17,-17.41 h -9.81 c -3.84,0 -6.96,-3.12 -6.96,-6.97 v -30.19 c 0,-3.85 3.12,-6.97 6.96,-6.97 h 0.7 l 132.49,-251.46 h -168.63 c -2.86,0 -5.43,-1.74 -6.47,-4.4 -1.05,-2.66 -0.38,-5.69 1.7,-7.64 l 29.94,-28.14 v -58.4 c -15.11,-21.36 -25.75,-46.14 -30.75,-72.05 l -57.61,-298.48 c -5.09,-26.38 0.97,-53.15 16.21,-71.61 12.03,-14.58 28.58,-22.6 46.58,-22.6"
         style="fill:#1d1b19;fill-opacity:1;fill-rule:nonzero;stroke:none"
         id="path16" />
      <path
         d="m 6368.04,1787.91 c 3.84,0 6.96,3.11 6.96,6.96 v 145.42 c 0,3.85 -3.12,6.97 -6.96,6.97 -3.85,0 -6.97,-3.12 -6.97,-6.97 v -145.42 c 0,-3.85 3.12,-6.96 6.97,-6.96"
         style="fill:#1d1b19;fill-opacity:1;fill-rule:nonzero;stroke:none"
         id="path18" />
      <path
         d="m 6116.65,1535.46 h 506.93 c 14.29,0 27.35,7.5 35.78,20.51 8.38,12.93 11.33,29.96 8.16,46.68 l -31.81,167.58 h -531.19 l -31.79,-167.58 c -3.18,-16.72 -0.23,-33.75 8.14,-46.68 8.43,-13.01 21.5,-20.51 35.78,-20.51"
         style="fill:#1d1b19;fill-opacity:1;fill-rule:nonzero;stroke:none"
         id="path20" />
      <path
         d="m 4998.85,2022.39 -21.49,-157.57 c -1.5,-10.98 1.82,-22.07 9.11,-30.42 7.29,-8.35 17.83,-13.14 28.91,-13.14 h 393.22 c 11.08,0 21.62,4.79 28.91,13.14 7.29,8.35 10.61,19.44 9.12,30.42 l -21.5,157.57 h -426.28"
         style="fill:#1d1b19;fill-opacity:1;fill-rule:nonzero;stroke:none"
         id="path22" />
      <path
         d="m 5522.95,1739.11 h -581.32 v 55.01 h 581.32 z m -606.21,1008.88 c 0,51.62 42,93.61 93.61,93.61 h 762.57 c 51.61,0 93.61,-41.99 93.61,-93.61 v -353.57 h -949.79 z m 532.35,-925.13 c -8.22,-9.42 -20.1,-14.82 -32.6,-14.82 h -409.01 c -12.49,0 -24.38,5.4 -32.59,14.82 -8.21,9.41 -11.96,21.91 -10.27,34.29 l 29.85,218.77 c 5.21,38.18 28.58,72 62.52,90.45 13.52,7.35 21.92,21.63 21.92,37.26 v 7.18 h 266.17 v -7.18 c 0,-15.64 8.4,-29.91 21.91,-37.26 33.95,-18.45 57.31,-52.27 62.52,-90.45 l 29.85,-218.77 c 1.69,-12.37 -2.06,-24.87 -10.27,-34.29 z m -370.18,446.04 v 9.48 h 281.69 l -11.13,-9.48 z m -249.02,-426.13 2.24,-0.33 c 2.13,-0.31 4.23,-0.46 6.31,-0.46 20.99,0 39.43,15.42 42.57,36.8 l 43.61,296.61 c 2.36,16.06 16.38,28.3 32.64,28.3 h 107.72 c 0,-10.71 -5.62,-20.16 -14.65,-25.08 -37.82,-20.56 -63.87,-58.25 -69.67,-100.81 l -29.85,-218.76 c -2.23,-16.37 2.72,-32.9 13.58,-45.34 1.79,-2.05 3.75,-3.9 5.79,-5.66 h -35.51 c -3.85,0 -6.97,-3.11 -6.97,-6.96 v -62.55 c -24.47,-2.82 -45.49,-20.07 -52.41,-44.13 l -27.21,-94.63 c -6.1,-21.24 -1.97,-43.54 11.32,-61.2 13.3,-17.66 33.61,-27.77 55.71,-27.77 h 902.84 c 34.47,0 62.51,28.03 62.51,62.51 v 1174.68 c 0,59.31 -48.25,107.55 -107.54,107.55 h -762.57 c -59.3,0 -107.54,-48.24 -107.54,-107.55 v -360.53 c 0,-1.02 0.24,-1.97 0.63,-2.84 0.02,-0.12 20.57,-44 20.57,-44 1.15,-2.45 3.61,-4.01 6.31,-4.01 h 592.63 v -528.57 h -69.15 c 2.03,1.76 4,3.61 5.79,5.66 10.86,12.44 15.81,28.97 13.58,45.34 l -29.85,218.76 c -5.8,42.56 -31.85,80.25 -69.67,100.81 -9.03,4.91 -14.65,14.5 -14.65,25.02 v 17.06 c 0,3.85 -3.11,6.97 -6.96,6.97 v 27.3 c 1.66,0 3.26,0.59 4.52,1.67 l 27.49,23.41 c 2.22,1.89 3.03,4.97 2.02,7.71 -1.01,2.74 -3.62,4.56 -6.54,4.56 h -21.77 c -2.93,8.59 -10.98,14.82 -20.55,14.82 h -250.44 c -12.02,0 -21.79,-9.78 -21.79,-21.79 v -16.44 h -107.74 c -48.39,0 -90.21,-36.12 -97.26,-84.01 l -46.95,-319.42 c -1.61,-10.92 5.96,-21.1 16.86,-22.7"
         style="fill:#1d1b19;fill-opacity:1;fill-rule:nonzero;stroke:none"
         id="path24" />
      <path
         d="m 5449.96,2650.72 h -99.12 c -8.89,0 -16.1,-7.23 -16.1,-16.11 v -15.33 c 0,-8.88 7.21,-16.11 16.1,-16.11 h 99.12 c 8.89,0 16.1,7.23 16.1,16.11 v 15.33 c 0,8.88 -7.21,16.11 -16.1,16.11"
         style="fill:#1d1b19;fill-opacity:1;fill-rule:nonzero;stroke:none"
         id="path26" />
      <path
         d="m 5225.74,2048.47 c 3.85,0 6.96,3.12 6.96,6.96 v 125.55 c 0,3.85 -3.11,6.97 -6.96,6.97 -3.85,0 -6.96,-3.12 -6.96,-6.97 v -125.55 c 0,-3.84 3.11,-6.96 6.96,-6.96"
         style="fill:#1d1b19;fill-opacity:1;fill-rule:nonzero;stroke:none"
         id="path28" />
      <path
         d="m 7327.2,2371.66 v -103.22 l -63.67,72.45 z m 213.72,-19.08 h -197.56 c -0.8,0 -1.53,-0.21 -2.24,-0.45 v 23.65 h 199.8 z m 6.96,-13.94 h 217.44 v -21.18 h -415 v 21.18 z m 6.96,37.14 h 10.28 v -23.2 h -10.28 z m 217.45,-23.2 h -193.25 v 23.2 h 193.25 z m -431.17,-95.66 v 47.05 c 0.71,-0.24 1.44,-0.45 2.24,-0.45 h 428.93 v -46.6 z m -6.85,-13.94 h 438.02 v -72.12 h -438.02 z m 444.89,-532.86 h -444.89 v 72.14 h 444.89 z m -438.04,-99.33 v 85.41 h 13.4 v -68.66 c 0,-3.84 3.11,-6.96 6.96,-6.96 h 389.97 c 3.85,0 6.97,3.12 6.97,6.96 v 68.66 h 13.87 v -85.41 z m 431.17,476.19 v -290.79 h -13.87 v 342.15 c 0,3.85 -3.12,6.97 -6.97,6.97 h -389.97 c -3.85,0 -6.96,-3.12 -6.96,-6.97 v -342.15 h -13.4 v 360.73 h 431.17 z m -217.45,900.17 h 10.28 v -542.74 h -10.28 z M 7321.59,2253.7 c -0.73,-1.09 -1.25,-2.34 -1.25,-3.75 v -86.06 c 0,-3.81 3.06,-6.89 6.86,-6.95 v -360.78 c -3.8,-0.06 -6.86,-3.13 -6.86,-6.94 v -86.06 c 0,-3.81 3.06,-6.88 6.86,-6.94 v -85.45 c -3.01,-0.05 -5.66,-2 -6.55,-4.88 l -26.74,-86.06 c -0.66,-2.12 -0.27,-4.42 1.05,-6.2 1.31,-1.79 3.39,-2.83 5.61,-2.83 h 512.29 c 2.22,0 4.3,1.04 5.61,2.83 1.31,1.78 1.7,4.08 1.04,6.2 l -26.74,86.06 c -0.89,2.88 -3.54,4.84 -6.55,4.88 v 85.45 c 3.8,0.05 6.86,3.13 6.86,6.94 v 86.06 c 0,3.82 -3.06,6.89 -6.86,6.95 v 289.6 c 15.62,45.61 50.23,116.65 78.17,116.65 0.19,0 22.75,-0.26 22.75,-0.26 24.41,-0.23 45.34,-18.68 48.68,-42.92 l 57.84,-421.37 c 2.12,-15.39 10.09,-29.05 22.45,-38.43 10.2,-7.76 22.38,-11.84 34.96,-11.84 2.67,0 5.35,0.19 8.05,0.56 l 3.16,0.44 c 6.73,0.93 12.7,4.42 16.8,9.84 4.1,5.42 5.85,12.12 4.92,18.86 l -62.29,453.78 c -9.15,66.61 -66.66,117.31 -133.76,117.93 l -101.73,0.94 v 92.8 c 0,0.43 -0.17,0.8 -0.25,1.21 v 40.38 c 0,3.84 -3.11,6.96 -6.96,6.96 h -167.36 v 6.14 c 0,3.85 -3.12,6.97 -6.96,6.97 h -25.65 v 547.61 l 7.05,10.62 h 21.27 c 6.29,0 11.4,5.11 11.4,11.4 v 21.94 c 0,6.29 -5.11,11.4 -11.4,11.4 h -94.76 c -6.29,0 -11.4,-5.11 -11.4,-11.4 v -21.94 c 0,-6.29 5.11,-11.4 11.4,-11.4 h 21.26 l 7.06,-10.62 v -547.61 h -31.28 c -3.85,0 -6.97,-3.12 -6.97,-6.97 v -6.14 H 7334.4 c -3.85,0 -6.96,-3.12 -6.96,-6.96 v -37.09 l -73.03,-35.16 c -1.96,-0.94 -3.38,-2.75 -3.81,-4.88 l -1.41,-6.93 c -0.44,-2.14 0.15,-4.35 1.59,-5.99 l 70.81,-80.59"
         style="fill:#1d1b19;fill-opacity:1;fill-rule:nonzero;stroke:none"
         id="path30" />
      <path
         d="m 1823.86,1767.56 c 4.09,-1.4 8.39,-2.32 12.95,-2.32 22.3,0 40.45,18.14 40.45,40.44 0,21.83 -17.41,39.56 -39.06,40.31 l 2.29,12.5 c 27.58,-1.93 49.5,-24.74 49.5,-52.81 0,-29.33 -23.86,-53.18 -53.18,-53.18 -5.34,0 -10.38,1.02 -15.24,2.49 z m 12.95,64.64 c 14.62,0 26.51,-11.9 26.51,-26.52 0,-14.62 -11.89,-26.51 -26.51,-26.51 -3.71,0 -7.23,0.77 -10.43,2.15 l 9.28,50.76 c 0.39,0.02 0.75,0.12 1.15,0.12 z m -233.45,-78.5 -22.58,123.51 c -0.43,2.34 0.61,4 1.26,4.78 0.65,0.78 2.1,2.1 4.47,2.1 h 237.5 c 2.37,0 3.82,-1.32 4.48,-2.1 0.64,-0.78 1.68,-2.44 1.25,-4.78 l -22.58,-123.51 c -2.8,-15.32 -16.13,-26.43 -31.69,-26.43 h -140.42 c -15.56,0 -28.89,11.11 -31.69,26.43 z m 581.32,-205.99 c -1.06,0.64 -2.22,1.1 -3.55,1.1 h -289.86 c -2.66,27.65 -26.01,49.35 -54.35,49.35 h -286.28 c -28.34,0 -51.69,-21.7 -54.36,-49.35 h -289.85 c -1.32,0 -2.48,-0.46 -3.54,-1.1 v 109.22 h 981.79 z m -10.51,-22.99 H 1213.4 v 10.17 h 960.77 z m -695.49,547.69 c 2.07,-2.63 5.28,-4.33 8.88,-4.33 13.27,0 24.23,9.73 26.33,22.41 h 59.92 v -22.76 c 0,-3.84 3.12,-6.96 6.97,-6.96 h 26.08 v -7.43 c 0,-3.85 3.12,-6.97 6.97,-6.97 h 31.49 l 9.35,-31.76 c 0.88,-2.96 3.6,-5 6.69,-5 h 24.25 c 3.09,0 5.81,2.04 6.69,5 l 9.36,31.76 h 14.44 l 9.36,-31.76 c 0.87,-2.96 3.59,-5 6.68,-5 h 24.27 c 3.09,0 5.81,2.04 6.68,5 l 9.36,31.76 h 27.33 c 3.85,0 6.97,3.12 6.97,6.97 v 109.95 h 49.6 c 3.84,0 6.96,3.12 6.96,6.97 v 60.96 h 54.75 v -43.08 c 0,-3.85 3.11,-6.97 6.96,-6.97 h 86.54 v -92.91 c -6.76,-6.19 -11.08,-15.01 -11.08,-24.88 0,-18.65 15.17,-33.83 33.83,-33.83 0.77,0 1.5,0.18 2.27,0.23 l 82.77,-82.78 v -5.54 c -0.19,-1.7 -0.24,-3.44 -0.02,-5.24 0.02,-0.12 0.02,-223.86 0.02,-223.86 H 1782.3 c 0.21,0.5 0.19,1.09 0.33,1.62 15.72,2.46 28.92,12.88 35.14,27.38 6.04,-1.79 12.42,-2.79 19.04,-2.79 37,0 67.1,30.11 67.1,67.11 0,34.9 -26.78,63.64 -60.87,66.8 l 0.41,2.23 c 1.06,5.78 -0.5,11.69 -4.26,16.2 -3.77,4.52 -9.3,7.11 -15.18,7.11 h -237.5 c -5.88,0 -11.41,-2.59 -15.18,-7.11 -3.76,-4.51 -5.32,-10.42 -4.26,-16.21 l 22.58,-123.5 c 3.62,-19.78 19.53,-34.55 38.97,-37.28 0.13,-0.52 0.11,-1.08 0.32,-1.56 h -360.73 v 360.05 z m 44.82,158.81 v -60.96 c 0,-3.85 3.12,-6.97 6.97,-6.97 h 76.39 v -6.8 h -26.08 c -3.85,0 -6.97,-3.12 -6.97,-6.97 v -22.75 h -59.98 c -2.34,12.39 -13.2,21.81 -26.27,21.81 -3.6,0 -6.81,-1.69 -8.88,-4.33 h -210.47 v 86.97 z m 544.03,-173.83 c 0.35,1.96 0.6,3.94 0.6,5.99 0,11.77 -6.04,22.12 -15.17,28.19 v 89.6 h 66.39 v -175.6 z m -479.78,40.07 v 45.09 h 19.11 v -67.85 h -19.11 z m 179.49,-37.16 h -146.45 v 96.65 h 172.02 v -96.65 z m 247.16,3.08 c 0,10.98 8.94,19.9 19.91,19.9 10.96,0 19.9,-8.92 19.9,-19.9 0,-10.97 -8.94,-19.89 -19.9,-19.89 -10.97,0 -19.91,8.92 -19.91,19.89 z m 141.15,-100.5 c 3.93,-0.02 8.31,-2.23 11.35,-5.75 l 30.76,-35.41 c 3.85,-4.42 4.83,-10.16 2.24,-13.05 l -8.01,-8.93 c -2.6,-2.91 -8.4,-2.54 -13.22,0.78 l -38.56,26.7 c -3.82,2.65 -6.49,6.72 -6.95,10.63 -0.18,1.55 -0.08,3.75 1.39,5.4 l 15.82,17.65 c 1.46,1.63 3.61,1.98 5.18,1.98 z m -952.66,612.94 h 391.12 c 1.03,-54.18 45.35,-97.96 99.77,-97.96 54.43,0 98.74,43.78 99.77,97.96 h 391.13 v -330.67 h -981.79 z m 576.83,1.91 c 0,-47.39 -38.55,-85.94 -85.94,-85.94 -47.38,0 -85.93,38.55 -85.93,85.94 0,47.39 38.55,85.94 85.93,85.94 47.39,0 85.94,-38.55 85.94,-85.94 z m -561.85,-495.55 c -6.11,0.99 -10.79,6.29 -10.79,12.67 v 26.96 c 0,6.38 4.68,11.69 10.79,12.67 1.07,-2.45 3.53,-4.17 6.38,-4.17 h 258.98 c 2.85,0 5.3,1.72 6.38,4.17 6.11,-0.98 10.78,-6.29 10.78,-12.67 v -26.96 c 0,-6.38 -4.67,-11.68 -10.78,-12.67 -1.08,2.45 -3.53,4.17 -6.38,4.17 h -258.98 c -2.85,0 -5.31,-1.72 -6.38,-4.17 z m -21.94,-548.8 h 3.53 v -15.62 c 0,-3.85 3.12,-6.96 6.97,-6.96 h 974.7 c 3.85,0 6.96,3.11 6.96,6.96 v 15.62 h 3.55 c 3.85,0 6.96,3.12 6.96,6.97 v 165.05 c 0,3.84 -3.11,6.96 -6.96,6.96 h -58.36 V 1915 l 37.46,-25.93 c 5.08,-3.52 10.7,-5.27 16,-5.27 5.99,0 11.58,2.24 15.52,6.63 l 8.01,8.94 c 7.43,8.29 6.56,21.53 -2.08,31.49 l -30.76,35.41 c -5.68,6.54 -13.81,10.48 -21.75,10.54 -2.43,0 -4.54,-0.41 -6.55,-1.01 l -15.85,15.85 v 189.52 h 4.43 c 3.85,0 6.97,3.12 6.97,6.97 v 43.07 h 46.96 c 3.85,0 6.96,3.12 6.96,6.97 v 468.15 c 0,3.85 -3.11,6.97 -6.96,6.97 h -995.71 c -3.85,0 -6.97,-3.12 -6.97,-6.97 v -468.15 c 0,-3.85 3.12,-6.97 6.97,-6.97 h 58.35 v -86.96 h -25.48 c -2.07,2.64 -5.29,4.33 -8.89,4.33 -14.76,0 -26.77,-12.01 -26.77,-26.77 v -26.96 c 0,-14.76 12.01,-26.77 26.77,-26.77 3.6,0 6.82,1.7 8.89,4.33 h 25.48 v -360.05 h -58.35 c -3.85,0 -6.97,-3.12 -6.97,-6.96 v -165.05 c 0,-3.85 3.12,-6.97 6.97,-6.97"
         style="fill:#1d1b19;fill-opacity:1;fill-rule:nonzero;stroke:none"
         id="path32" />
      <path
         d="m 1700.26,2577.73 c 0,-3.57 -2.91,-6.47 -6.48,-6.47 -3.57,0 -6.48,2.9 -6.48,6.47 0,3.57 2.91,6.48 6.48,6.48 3.57,0 6.48,-2.91 6.48,-6.48 z m 0.49,19.11 v 48.82 c 0,3.84 -3.12,6.96 -6.97,6.96 -3.84,0 -6.96,-3.12 -6.96,-6.96 v -48.82 c -7.82,-2.86 -13.45,-10.31 -13.45,-19.11 0,-11.25 9.16,-20.41 20.41,-20.41 11.26,0 20.41,9.16 20.41,20.41 0,8.8 -5.62,16.25 -13.44,19.11"
         style="fill:#1d1b19;fill-opacity:1;fill-rule:nonzero;stroke:none"
         id="path34" />
      <path
         d="m 1695.63,2275.26 c 22.16,0 40.18,18.03 40.18,40.19 0,22.16 -18.02,40.19 -40.18,40.19 -22.16,0 -40.19,-18.03 -40.19,-40.19 0,-22.16 18.03,-40.19 40.19,-40.19"
         style="fill:#1d1b19;fill-opacity:1;fill-rule:nonzero;stroke:none"
         id="path36" />
      <path
         d="m 1530.47,2275.26 c 22.16,0 40.18,18.03 40.18,40.19 0,22.16 -18.02,40.19 -40.18,40.19 -22.16,0 -40.19,-18.03 -40.19,-40.19 0,-22.16 18.03,-40.19 40.19,-40.19"
         style="fill:#1d1b19;fill-opacity:1;fill-rule:nonzero;stroke:none"
         id="path38" />
      <path
         d="m 1860.79,2275.26 c 22.17,0 40.19,18.03 40.19,40.19 0,22.16 -18.02,40.19 -40.19,40.19 -22.15,0 -40.18,-18.03 -40.18,-40.19 0,-22.16 18.03,-40.19 40.18,-40.19"
         style="fill:#1d1b19;fill-opacity:1;fill-rule:nonzero;stroke:none"
         id="path40" />
      <path
         d="m 1801.94,1792.11 12,67.14 c 0.36,2.03 -0.2,4.12 -1.51,5.7 -1.33,1.58 -3.29,2.59 -5.35,2.59 h -203.67 c -2.06,0 -4.02,-0.83 -5.34,-2.41 -1.33,-1.58 -1.88,-3.67 -1.52,-5.7 l 12.03,-67.32 c 5.54,-31.02 32.02,-53.54 62.94,-53.54 h 67.47 c 30.93,0 57.4,22.52 62.95,53.54"
         style="fill:#1d1b19;fill-opacity:1;fill-rule:nonzero;stroke:none"
         id="path42" />
      <path
         d="m 2910.8,1702.7 h -435.76 c -3.85,0 -6.96,-3.11 -6.96,-6.96 v -128.95 c 0,-17.59 14.31,-31.9 31.91,-31.9 h 385.86 c 17.6,0 31.91,14.31 31.91,31.9 v 128.95 c 0,3.85 -3.11,6.96 -6.96,6.96"
         style="fill:#1d1b19;fill-opacity:1;fill-rule:nonzero;stroke:none"
         id="path44" />
      <path
         d="m 2919.42,1524.72 h -453.01 c -5.42,0 -9.84,4.42 -9.84,9.85 v 507.34 c 1.26,-1.24 2.98,-2.02 4.89,-2.02 h 458.53 c 3.85,0 6.96,3.12 6.96,6.97 v 45.91 h 2.32 v -558.2 c 0,-5.43 -4.42,-9.85 -9.85,-9.85 z M 2805.16,2929.2 V 2395.09 H 2580.67 V 2929.2 Z M 2548.02,2754 h 18.73 v -358.91 h -10.55 c -3.85,0 -6.96,-3.12 -6.96,-6.96 v -52.88 c 0,-3.85 3.11,-6.97 6.96,-6.97 h 273.44 c 3.85,0 6.96,3.12 6.96,6.97 v 52.88 c 0,3.84 -3.11,6.96 -6.96,6.96 h -10.55 V 2754 h 18.73 v -572.64 h -289.8 z m -152.17,-661.23 h 46.8 v -558.2 c 0,-13.11 10.66,-23.77 23.76,-23.77 h 453.01 c 13.11,0 23.77,10.66 23.77,23.77 v 558.2 h 46.8 c 3.85,0 6.96,3.12 6.96,6.97 v 37.32 c 0,3.85 -3.11,6.97 -6.96,6.97 h -69.09 v 30.36 c 0,3.85 -3.12,6.97 -6.97,6.97 h -62.18 v 579.61 c 0,3.85 -3.12,6.97 -6.97,6.97 h -25.69 v 161.26 h 10.55 c 3.85,0 6.96,3.12 6.96,6.97 v 52.87 c 0,3.85 -3.11,6.97 -6.96,6.97 H 2556.2 c -3.85,0 -6.96,-3.12 -6.96,-6.97 v -52.87 c 0,-3.85 3.11,-6.97 6.96,-6.97 h 10.55 v -161.26 h -25.7 c -3.84,0 -6.96,-3.12 -6.96,-6.97 v -579.61 h -62.19 c -3.84,0 -6.96,-3.12 -6.96,-6.97 v -30.36 h -69.09 c -3.85,0 -6.96,-3.12 -6.96,-6.97 v -37.32 c 0,-3.85 3.11,-6.97 6.96,-6.97"
         style="fill:#1d1b19;fill-opacity:1;fill-rule:nonzero;stroke:none"
         id="path46" />
      <path
         d="m 7729.27,109.379 c -30.94,-50.8009 -71.04,-81.4298 -114.25,-87.9102 40.14,98.3592 55.94,170.5622 -18.54,287.3122 -81.06,127.028 -81.19,220.457 -0.41,321.188 47.44,-1.309 92.58,-31.539 127.54,-85.75 37.06,-57.449 58.07,-134.399 59.13,-216.68 1.07,-82.277 -17.92,-159.758 -53.47,-218.16 z M 7407.9,322.66 c -2.02,155.758 68.45,285.461 160.96,304.852 -93.06,-128.524 -47.52,-238.391 10.65,-329.551 69.16,-108.402 57.06,-171.91 13.25,-277.6407 C 7492.37,24.6484 7410.04,158.078 7407.9,322.66 Z m 184.99,327.551 c -0.6,0 -1.2,0 -1.79,-0.012 -0.27,0 -0.53,-0.039 -0.81,-0.039 -114.1,-2.18 -204.83,-148.969 -202.51,-327.75 2.33,-178.351 96.37,-322.4217188 210.02,-322.41 0.53,0 1.06,0 1.58,0 56.51,0.738281 108.69,35.8594 147.07,98.9219 37.5,61.5781 57.53,142.8591 56.41,228.8791 -1.11,86.008 -23.25,166.75 -62.33,227.328 -39.6,61.391 -91.97,95.082 -147.64,95.082"
         style="fill:#1d1b19;fill-opacity:1;fill-rule:nonzero;stroke:none"
         id="path48" />
      <path
         d="m 5912.5,141.941 c 31.77,78.579 43.52,137.098 -16.45,231.098 -64.85,101.652 -65.18,176.449 -1.04,256.91 80.45,-3.039 146.5,-110.347 148.23,-242.781 1.64,-126.27 -55.77,-231.27 -130.74,-245.227 z m -121.19,67 c -29.8,46.188 -46.68,108.11 -47.55,174.329 -1.59,122.359 52.26,224.75 123.81,243.691 -72.12,-103.141 -35.3,-191.371 11.51,-264.742 55.49,-86.957 46.64,-135.641 11.08,-221.66 -36.71,2.121 -71.6,26.14 -98.85,68.382 z m 100.17,441.27 c -0.47,0 -0.95,0 -1.42,-0.012 -0.27,0 -0.54,-0.039 -0.82,-0.039 -93.32,-2.019 -167.49,-121.512 -165.6,-267.148 0.91,-69.961 18.94,-135.653 50.75,-184.981 32.41,-50.222 75.35,-77.801 121.07,-77.801 0.44,0 0.88,0 1.31,0.008 93.83,1.223 168.48,121.082 166.59,267.192 -1.9,145.371 -78.85,262.781 -171.88,262.781"
         style="fill:#1d1b19;fill-opacity:1;fill-rule:nonzero;stroke:none"
         id="path50" />
      <path
         d="m 3933.09,348.789 c -14.43,-23.699 -32.51,-38.988 -52.02,-44.66 20.29,51.762 26.49,91.891 -13.82,155.082 -43.1,67.539 -43.73,117.32 -2,170.559 52.63,-3.301 95.64,-74.641 96.78,-162.661 0.59,-44.687 -9.69,-86.711 -28.94,-118.32 z M 3763.6,464.531 c -0.57,44.699 9.7,86.719 28.95,118.321 12.62,20.726 28.05,34.957 44.77,42.039 -43.11,-68.52 -18.42,-127.34 12.96,-176.5 36.64,-57.442 31.34,-90.02 8.26,-146.36 -51.78,4.84 -93.8,75.52 -94.94,162.5 z m 97.84,185.68 c -0.34,0 -0.68,0 -1.01,-0.012 -0.22,0 -0.43,-0.051 -0.65,-0.058 -32.77,-0.813 -62.59,-20.95 -84.43,-56.821 -21.18,-34.789 -32.5,-80.621 -31.86,-129.05 1.31,-101.149 55.37,-182.84 120.71,-182.84 0.28,0 0.57,0 0.85,0.011 32.95,0.418 63.16,20.629 85.23,56.887 21.18,34.793 32.5,80.621 31.87,129.043 -1.31,101.149 -55.36,182.84 -120.71,182.84"
         style="fill:#1d1b19;fill-opacity:1;fill-rule:nonzero;stroke:none"
         id="path52" />
      <path
         d="m 2099.3,399.121 c 13.37,35.969 16.17,65.231 -12.51,110.18 -30.88,48.39 -31.68,82.609 -2.5,120.461 16.11,-1.594 31.54,-12.602 43.85,-31.672 14.39,-22.301 22.55,-52.309 22.97,-84.488 0.7,-54.082 -21.82,-101.204 -51.81,-114.481 z m -87.88,112.649 c -0.41,32.191 6.97,62.402 20.78,85.07 6.79,11.16 14.7,19.629 23.24,25.269 -25.47,-47.75 -7.77,-88.918 14.37,-123.629 25.72,-40.3 22.46,-63.5 6.59,-102.691 -35.06,5.191 -64.19,55.973 -64.98,115.981 z m 68.87,138.441 c -0.27,0 -0.54,0 -0.81,-0.012 -0.22,0 -0.43,-0.051 -0.65,-0.058 -24.92,-0.61 -47.42,-15.871 -63.82,-42.832 -15.75,-25.86 -24.17,-59.879 -23.7,-95.789 0.99,-76.7 40.87,-136.372 90.94,-136.372 0.21,0 0.43,0.012 0.64,0.012 50.6,0.66 89.34,61.578 88.34,138.692 -0.47,35.918 -9.77,69.707 -26.18,95.148 -17.16,26.602 -40.13,41.211 -64.76,41.211"
         style="fill:#1d1b19;fill-opacity:1;fill-rule:nonzero;stroke:none"
         id="path54" />
      <path
         d="m 695.367,496.301 c -3.871,-6.36 -8.277,-11.34 -12.988,-14.922 6.758,21.84 6.566,42.031 -11.613,70.512 -19.965,31.3 -20.735,53.558 -2.77,77.789 9.426,-1.66 18.481,-8.649 25.902,-20.141 9.579,-14.848 15.008,-34.898 15.286,-56.43 0.281,-21.539 -4.625,-41.711 -13.817,-56.808 z m -75.906,55.64 c -0.281,21.539 4.625,41.707 13.812,56.809 1.508,2.469 3.114,4.668 4.766,6.738 -8.91,-28.898 2.895,-54.258 15.762,-74.418 16.437,-25.75 15,-40.429 5.191,-65.281 -21.515,5.231 -39.035,37.832 -39.531,76.152 z m 43.59,98.258 c -0.223,0 -0.434,-0.051 -0.653,-0.058 -18.226,-0.582 -34.511,-11.551 -46.312,-30.93 -11.133,-18.281 -17.078,-42.262 -16.75,-67.531 0.711,-54.469 29.496,-96.84 65.656,-96.84 18.86,0.238 35.539,11.25 47.567,31.012 11.132,18.269 17.078,42.25 16.75,67.507 -0.332,25.282 -6.899,49.11 -18.5,67.09 -12.539,19.43 -29.403,30.371 -47.758,29.75"
         style="fill:#1d1b19;fill-opacity:1;fill-rule:nonzero;stroke:none"
         id="path56" />
      <path
         d="m 354.543,862.828 h -56.051 v 46.832 h 50.102 c 2.687,0 3.84,1.731 3.84,5.77 v 3.058 c 0,4.043 -1.153,5.762 -3.84,5.762 h -50.102 v 43.762 h 55.863 c 2.684,0 3.836,1.726 3.836,5.769 v 3.071 c 0,4.027 -1.152,5.75 -3.836,5.75 h -66.992 c -4.035,0 -5.761,-1.723 -5.761,-5.75 V 854 c 0,-4.031 1.726,-5.762 5.761,-5.762 h 67.18 c 2.687,0 3.84,1.731 3.84,5.762 v 3.07 c 0,4.032 -1.153,5.758 -3.84,5.758"
         style="fill:#1d1b19;fill-opacity:1;fill-rule:nonzero;stroke:none"
         id="path58" />
      <path
         d="m 424.383,900.059 28.984,42.242 c 0.961,1.34 1.539,2.488 1.539,3.449 0,2.301 -2.304,3.27 -8.062,3.27 h -0.77 c -3.84,0 -7.293,-0.579 -8.64,-2.7 l -18.426,-27.629 c -2.301,-3.461 -3.262,-5.382 -4.028,-6.722 -0.769,1.34 -1.73,3.261 -4.035,6.722 l -18.23,27.45 c -1.539,2.3 -4.227,2.879 -8.258,2.879 h -1.73 c -6.524,0 -8.829,-1.149 -8.829,-3.27 0,-0.961 0.579,-2.109 1.54,-3.449 l 28.789,-42.621 -31.094,-45.102 c -0.961,-1.348 -1.539,-2.5 -1.539,-3.457 0,-2.312 2.304,-3.262 8.258,-3.262 h 0.578 c 3.836,0 7.097,0.571 8.636,2.68 l 20.727,30.723 c 2.305,3.449 3.266,5.367 4.031,6.707 0.77,-1.34 1.731,-3.258 4.035,-6.707 l 20.348,-30.524 c 1.531,-2.308 4.223,-2.879 8.25,-2.879 h 1.731 c 6.527,0 8.828,1.153 8.828,3.262 0,0.957 -0.578,2.109 -1.536,3.457 l -31.097,45.481"
         style="fill:#1d1b19;fill-opacity:1;fill-rule:nonzero;stroke:none"
         id="path60" />
      <path
         d="m 516.105,861.871 c -1.726,0 -2.683,-0.973 -8.25,-0.973 -5.57,0 -10.367,2.704 -10.367,14.211 v 59.7 h 16.125 c 2.684,0 3.836,1.73 3.836,5.761 v 2.309 c 0,4.019 -1.152,5.75 -3.836,5.75 h -16.125 v 20.152 c 0,2.688 -1.726,4.231 -5.761,4.231 h -1.918 c -4.028,0 -5.954,-1.543 -6.145,-4.231 l -2.305,-20.152 h -9.593 c -2.692,0 -3.836,-1.731 -3.836,-5.75 v -2.309 c 0,-4.031 1.144,-5.761 3.836,-5.761 h 9.593 v -61.231 c 0,-22.269 15.168,-26.488 24.766,-26.488 5.184,0 14.016,0.57 14.016,5.762 0,1.527 -1.348,9.019 -4.036,9.019"
         style="fill:#1d1b19;fill-opacity:1;fill-rule:nonzero;stroke:none"
         id="path62" />
      <path
         d="m 580.77,949.781 c -8.063,0 -15.739,-5.179 -22.266,-14.39 -1.152,4.988 -2.109,12.66 -6.719,12.66 -2.496,0 -10.367,-0.762 -10.367,-4.41 0,-0.961 2.305,-8.45 2.305,-24.192 v -67.371 c 0,-2.687 2.304,-4.219 7.683,-4.219 h 0.766 c 5.375,0 7.676,1.532 7.676,4.219 v 70.25 c 0,0 7.679,11.711 17.66,11.711 6.527,0 8.062,-2.109 10.558,-2.109 2.301,0 3.84,6.718 3.84,10.371 0,4.219 -3.644,7.48 -11.136,7.48"
         style="fill:#1d1b19;fill-opacity:1;fill-rule:nonzero;stroke:none"
         id="path64" />
      <path
         d="m 669.816,874.34 c -7.675,-6.899 -16.121,-13.238 -30.136,-13.238 -10.746,0 -16.317,5.57 -16.317,15.738 0,19.961 26.492,19.961 46.453,20.16 z m -63.73,1.551 c 0,-19.782 14.207,-28.801 32.828,-28.801 14.395,0 24.953,6.328 32.246,14.39 1.153,-5.371 2.113,-13.441 6.719,-13.441 2.496,0 10.367,0.77 10.367,4.422 0,0.957 -2.305,8.437 -2.305,24.187 v 42.993 c 0,19.007 -14.007,30.14 -37.812,30.14 -19.195,0 -36.09,-7.293 -36.09,-12.281 0,-2.109 4.035,-9.602 6.719,-9.602 1.918,0 12.476,8.063 29.945,8.063 15.934,0 21.113,-7.492 21.113,-16.121 v -9.02 c -29.367,-0.39 -63.73,-2.5 -63.73,-34.929"
         style="fill:#1d1b19;fill-opacity:1;fill-rule:nonzero;stroke:none"
         id="path66" />
      <path
         d="m 794.543,979.539 c 5.566,0 6.531,-0.961 8.254,-0.961 2.691,0 4.031,7.481 4.031,9.012 0,5.191 -8.832,5.762 -14.012,5.762 -9.601,0 -24.761,-3.641 -24.761,-26.481 v -18.242 h -7.68 c -2.687,0 -3.84,-1.731 -3.84,-5.75 v -2.309 c 0,-4.031 1.153,-5.761 3.84,-5.761 h 7.68 v -82.731 c 0,-2.687 2.304,-4.219 7.675,-4.219 h 0.774 c 5.371,0 7.676,1.532 7.676,4.219 v 82.731 h 16.699 c 2.687,0 3.836,1.73 3.836,5.761 v 2.309 c 0,4.019 -1.149,5.75 -3.836,5.75 H 784.18 v 16.699 c 0,12.672 4.797,14.211 10.363,14.211"
         style="fill:#1d1b19;fill-opacity:1;fill-rule:nonzero;stroke:none"
         id="path68" />
      <path
         d="m 830.438,949.02 h -0.766 c -5.375,0 -7.676,-1.54 -7.676,-4.231 v -92.711 c 0,-2.687 2.301,-4.219 7.676,-4.219 h 0.766 c 5.375,0 7.679,1.532 7.679,4.219 v 92.711 c 0,2.691 -2.304,4.231 -7.679,4.231"
         style="fill:#1d1b19;fill-opacity:1;fill-rule:nonzero;stroke:none"
         id="path70" />
      <path
         d="m 831.211,992.578 h -2.305 c -5.379,0 -7.683,-1.527 -7.683,-4.219 v -11.32 c 0,-2.687 2.304,-4.219 7.683,-4.219 h 2.305 c 5.367,0 7.676,1.532 7.676,4.219 v 11.32 c 0,2.692 -2.309,4.219 -7.676,4.219"
         style="fill:#1d1b19;fill-opacity:1;fill-rule:nonzero;stroke:none"
         id="path72" />
      <path
         d="m 916.594,949.781 c -10.75,0 -21.883,-5.371 -29.946,-14.39 -1.152,4.988 -2.109,12.66 -6.718,12.66 -2.496,0 -10.367,-0.762 -10.367,-4.41 0,-0.961 2.304,-8.45 2.304,-24.192 v -67.371 c 0,-2.687 2.305,-4.219 7.676,-4.219 h 0.773 c 5.372,0 7.676,1.532 7.676,4.219 v 70.25 c 6.332,8.262 15.547,13.442 24.184,13.442 12.48,0 19.582,-6.911 19.582,-18.622 v -65.07 c 0,-2.687 2.305,-4.219 7.68,-4.219 h 0.765 c 5.375,0 7.68,1.532 7.68,4.219 v 66.613 c 0,19.379 -11.707,31.09 -31.289,31.09"
         style="fill:#1d1b19;fill-opacity:1;fill-rule:nonzero;stroke:none"
         id="path74" />
      <path
         d="m 990.074,905.629 c 1.352,20.16 10.176,30.332 26.876,30.332 15.36,0 23.04,-10.172 23.04,-30.332 z m 66.996,-5.949 c 0,32.629 -13.24,50.101 -39.54,50.101 -29.374,0 -44.729,-18.051 -44.729,-52.019 0,-34.364 15.168,-50.672 47.029,-50.672 19.39,0 34.55,7.672 34.55,12.281 0,2.109 -4.03,9.598 -6.72,9.598 -1.91,0 -11.32,-8.071 -28.02,-8.071 -19.01,0 -28.027,9.602 -29.566,30.911 h 60.666 c 2.3,0 6.33,5.57 6.33,7.871"
         style="fill:#1d1b19;fill-opacity:1;fill-rule:nonzero;stroke:none"
         id="path76" />
      <path
         d="m 1976.62,982.609 h -60.47 c -4.03,0 -5.76,-1.718 -5.76,-5.75 V 852.09 c 0,-2.692 2.3,-4.219 7.68,-4.219 h 1.54 c 5.37,0 7.67,1.527 7.67,4.219 v 57.578 h 45.88 c 2.69,0 3.84,1.73 3.84,5.762 v 3.07 c 0,4.031 -1.15,5.762 -3.84,5.762 h -45.88 v 43.769 h 49.34 c 2.69,0 3.84,1.719 3.84,5.75 v 3.078 c 0,4.032 -1.15,5.75 -3.84,5.75"
         style="fill:#1d1b19;fill-opacity:1;fill-rule:nonzero;stroke:none"
         id="path78" />
      <path
         d="m 2022.65,977.051 v 11.328 c 0,2.68 -2.3,4.223 -7.68,4.223 h -2.31 c -5.37,0 -7.67,-1.543 -7.67,-4.223 v -11.328 c 0,-2.692 2.3,-4.223 7.67,-4.223 h 2.31 c 5.38,0 7.68,1.531 7.68,4.223"
         style="fill:#1d1b19;fill-opacity:1;fill-rule:nonzero;stroke:none"
         id="path80" />
      <path
         d="m 2013.44,949.031 c -5.37,0 -7.68,-1.543 -7.68,-4.23 V 852.09 c 0,-2.692 2.31,-4.219 7.68,-4.219 h 0.77 c 5.37,0 7.67,1.527 7.67,4.219 v 92.711 c 0,2.687 -2.3,4.23 -7.67,4.23 h -0.77"
         style="fill:#1d1b19;fill-opacity:1;fill-rule:nonzero;stroke:none"
         id="path82" />
      <path
         d="m 2123.21,847.871 h 0.77 c 5.37,0 7.68,1.527 7.68,4.219 v 66.609 c 0,19.379 -11.71,31.09 -31.29,31.09 -10.74,0 -21.88,-5.371 -29.94,-14.391 -1.15,4.993 -2.11,12.661 -6.72,12.661 -2.5,0 -10.36,-0.758 -10.36,-4.411 0,-0.957 2.29,-8.449 2.29,-24.187 V 852.09 c 0,-2.692 2.31,-4.219 7.69,-4.219 h 0.76 c 5.38,0 7.69,1.527 7.69,4.219 v 70.25 c 6.32,8.262 15.54,13.441 24.18,13.441 12.48,0 19.58,-6.91 19.58,-18.621 v -65.07 c 0,-2.692 2.3,-4.219 7.67,-4.219"
         style="fill:#1d1b19;fill-opacity:1;fill-rule:nonzero;stroke:none"
         id="path84" />
      <path
         d="m 2173.86,905.641 c 1.34,20.16 10.17,30.328 26.87,30.328 15.36,0 23.04,-10.168 23.04,-30.328 z m 66.99,-5.95 c 0,32.629 -13.24,50.098 -39.54,50.098 -29.37,0 -44.73,-18.051 -44.73,-52.019 0,-34.36 15.17,-50.668 47.03,-50.668 19.39,0 34.55,7.668 34.55,12.277 0,2.109 -4.03,9.601 -6.72,9.601 -1.92,0 -11.32,-8.07 -28.02,-8.07 -19.01,0 -28.03,9.602 -29.56,30.91 h 60.66 c 2.3,0 6.33,5.571 6.33,7.871"
         style="fill:#1d1b19;fill-opacity:1;fill-rule:nonzero;stroke:none"
         id="path86" />
      <path
         d="m 3455.61,983 h -6.33 c -4.6,0 -6.91,-1.34 -8.06,-3.449 l -36.28,-64.121 -4.99,-10.942 -4.99,12.102 -36.28,62.961 c -1.15,2.109 -3.46,3.449 -8.07,3.449 h -6.91 c -5.37,0 -7.68,-1.539 -7.68,-4.219 V 852.09 c 0,-2.692 2.31,-4.219 7.68,-4.219 h 1.35 c 5.37,0 7.67,1.527 7.67,4.219 v 104.422 l 39.16,-68.344 c 0.96,-1.719 2.31,-2.488 4.22,-2.488 h 7.69 c 2.11,0 3.26,0.769 4.22,2.488 l 38.58,67.191 V 852.09 c 0,-2.692 2.31,-4.219 7.68,-4.219 h 1.34 c 5.38,0 7.68,1.527 7.68,4.219 v 126.691 c 0,2.68 -2.3,4.219 -7.68,4.219"
         style="fill:#1d1b19;fill-opacity:1;fill-rule:nonzero;stroke:none"
         id="path88" />
      <path
         d="m 3508.35,905.641 c 1.35,20.16 10.17,30.328 26.87,30.328 15.36,0 23.04,-10.168 23.04,-30.328 z m 66.99,-5.95 c 0,32.629 -13.24,50.098 -39.54,50.098 -29.37,0 -44.73,-18.051 -44.73,-52.019 0,-34.36 15.17,-50.668 47.03,-50.668 19.39,0 34.56,7.668 34.56,12.277 0,2.109 -4.04,9.601 -6.72,9.601 -1.93,0 -11.33,-8.07 -28.03,-8.07 -19,0 -28.03,9.602 -29.56,30.91 h 60.66 c 2.3,0 6.33,5.571 6.33,7.871"
         style="fill:#1d1b19;fill-opacity:1;fill-rule:nonzero;stroke:none"
         id="path90" />
      <path
         d="m 3660.34,874.352 c -7.87,-8.633 -17.47,-13.243 -25.91,-13.243 -15.16,0 -23.61,14.012 -23.61,38.782 0,22.839 8.63,35.308 25.91,35.699 8.64,0 16.71,-2.879 23.61,-8.641 z m 16.12,114.027 c 0,2.68 -2.3,4.223 -7.67,4.223 h -0.77 c -5.37,0 -7.68,-1.543 -7.68,-4.223 v -48.367 c -7.48,5.75 -15.55,9.777 -27.45,9.777 -22.84,0 -38.97,-18.051 -38.97,-51.437 0,-29.75 14.21,-51.25 37.24,-51.25 10.95,0 21.12,4.609 30.53,14.386 1.15,-5.367 2.11,-13.437 6.72,-13.437 2.49,0 10.36,0.769 10.36,4.418 0,0.961 -2.31,8.441 -2.31,24.191 v 111.719"
         style="fill:#1d1b19;fill-opacity:1;fill-rule:nonzero;stroke:none"
         id="path92" />
      <path
         d="m 3718.28,949.031 h -0.77 c -5.37,0 -7.68,-1.543 -7.68,-4.23 V 852.09 c 0,-2.692 2.31,-4.219 7.68,-4.219 h 0.77 c 5.37,0 7.68,1.527 7.68,4.219 v 92.711 c 0,2.687 -2.31,4.23 -7.68,4.23"
         style="fill:#1d1b19;fill-opacity:1;fill-rule:nonzero;stroke:none"
         id="path94" />
      <path
         d="m 3719.04,992.602 h -2.3 c -5.37,0 -7.68,-1.543 -7.68,-4.223 v -11.328 c 0,-2.692 2.31,-4.223 7.68,-4.223 h 2.3 c 5.38,0 7.68,1.531 7.68,4.223 v 11.328 c 0,2.68 -2.3,4.223 -7.68,4.223"
         style="fill:#1d1b19;fill-opacity:1;fill-rule:nonzero;stroke:none"
         id="path96" />
      <path
         d="m 3766.05,949.031 h -0.77 c -5.37,0 -7.67,-1.543 -7.67,-4.23 v -66.61 c 0,-19.39 11.71,-31.089 31.29,-31.089 10.75,0 21.88,5.367 29.95,14.386 1.14,-5.367 2.11,-13.437 6.72,-13.437 2.49,0 10.36,0.769 10.36,4.418 0,0.961 -2.31,8.441 -2.31,24.191 v 68.141 c 0,2.687 -2.3,4.23 -7.67,4.23 h -0.78 c -5.37,0 -7.67,-1.543 -7.67,-4.23 v -70.25 c -6.34,-8.262 -15.55,-13.442 -24.19,-13.442 -12.47,0 -19.58,6.911 -19.58,18.621 v 65.071 c 0,2.687 -2.31,4.23 -7.68,4.23"
         style="fill:#1d1b19;fill-opacity:1;fill-rule:nonzero;stroke:none"
         id="path98" />
      <path
         d="m 3968.34,949.789 c -12.09,0 -23.22,-7.289 -30.52,-15.93 -5.37,13.051 -18.05,15.93 -27.45,15.93 -12.29,0 -22.84,-7.098 -29.18,-14.391 -1.15,4.993 -2.11,12.661 -6.72,12.661 -2.49,0 -10.36,-0.758 -10.36,-4.411 0,-0.957 2.3,-8.449 2.3,-24.187 V 852.09 c 0,-2.692 2.31,-4.219 7.68,-4.219 h 0.77 c 5.37,0 7.68,1.527 7.68,4.219 v 70.441 c 0,0 9.4,13.25 23.42,13.25 12.28,0 18.42,-7.301 18.42,-18.621 v -65.07 c 0,-2.692 2.31,-4.219 7.68,-4.219 h 0.77 c 5.37,0 7.68,1.527 7.68,4.219 v 66.41 c 0,1.148 0,2.5 -0.2,3.84 3.08,3.648 11.91,13.441 23.61,13.441 12.29,0 18.43,-7.301 18.43,-18.621 v -65.07 c 0,-2.692 2.31,-4.219 7.68,-4.219 h 0.77 c 5.37,0 7.68,1.527 7.68,4.219 v 66.609 c 0,26.102 -17.86,31.09 -30.14,31.09"
         style="fill:#1d1b19;fill-opacity:1;fill-rule:nonzero;stroke:none"
         id="path100" />
      <path
         d="m 4142.76,992.602 h -2.3 c -5.37,0 -7.68,-1.543 -7.68,-4.223 v -11.328 c 0,-2.692 2.31,-4.223 7.68,-4.223 h 2.3 c 5.37,0 7.68,1.531 7.68,4.223 v 11.328 c 0,2.68 -2.31,4.223 -7.68,4.223"
         style="fill:#1d1b19;fill-opacity:1;fill-rule:nonzero;stroke:none"
         id="path102" />
      <path
         d="m 4141.99,949.031 h -0.76 c -5.38,0 -7.69,-1.543 -7.69,-4.23 V 852.09 c 0,-2.692 2.31,-4.219 7.69,-4.219 h 0.76 c 5.38,0 7.68,1.527 7.68,4.219 v 92.711 c 0,2.687 -2.3,4.23 -7.68,4.23"
         style="fill:#1d1b19;fill-opacity:1;fill-rule:nonzero;stroke:none"
         id="path104" />
      <path
         d="m 4106.09,979.551 c 5.57,0 6.54,-0.961 8.26,-0.961 2.69,0 4.03,7.48 4.03,9.012 0,5.187 -8.83,5.757 -14.01,5.757 -9.6,0 -24.76,-3.64 -24.76,-26.48 v -18.238 h -7.68 c -2.69,0 -3.84,-1.731 -3.84,-5.75 v -2.313 c 0,-4.027 1.15,-5.758 3.84,-5.758 h 7.68 v -82.73 c 0,-2.692 2.3,-4.219 7.67,-4.219 h 0.78 c 5.37,0 7.67,1.527 7.67,4.219 v 82.73 h 16.7 c 2.69,0 3.84,1.731 3.84,5.758 v 2.313 c 0,4.019 -1.15,5.75 -3.84,5.75 h -16.7 v 16.699 c 0,12.672 4.8,14.211 10.36,14.211"
         style="fill:#1d1b19;fill-opacity:1;fill-rule:nonzero;stroke:none"
         id="path106" />
      <path
         d="m 4228.14,949.789 c -10.74,0 -21.87,-5.371 -29.94,-14.391 -1.15,4.993 -2.11,12.661 -6.72,12.661 -2.5,0 -10.36,-0.758 -10.36,-4.411 0,-0.957 2.3,-8.449 2.3,-24.187 V 852.09 c 0,-2.692 2.3,-4.219 7.68,-4.219 h 0.76 c 5.38,0 7.69,1.527 7.69,4.219 v 70.25 c 6.33,8.262 15.55,13.441 24.18,13.441 12.48,0 19.58,-6.91 19.58,-18.621 v -65.07 c 0,-2.692 2.3,-4.219 7.68,-4.219 h 0.77 c 5.37,0 7.67,1.527 7.67,4.219 v 66.609 c 0,19.379 -11.71,31.09 -31.29,31.09"
         style="fill:#1d1b19;fill-opacity:1;fill-rule:nonzero;stroke:none"
         id="path108" />
      <path
         d="m 4301.63,905.641 c 1.35,20.16 10.18,30.328 26.87,30.328 15.37,0 23.04,-10.168 23.04,-30.328 z m 66.99,-5.95 c 0,32.629 -13.24,50.098 -39.54,50.098 -29.36,0 -44.73,-18.051 -44.73,-52.019 0,-34.36 15.17,-50.668 47.04,-50.668 19.38,0 34.55,7.668 34.55,12.277 0,2.109 -4.04,9.601 -6.72,9.601 -1.93,0 -11.33,-8.07 -28.03,-8.07 -19,0 -28.03,9.602 -29.56,30.91 h 60.66 c 2.3,0 6.33,5.571 6.33,7.871"
         style="fill:#1d1b19;fill-opacity:1;fill-rule:nonzero;stroke:none"
         id="path110" />
      <path
         d="m 5672.59,983 h -6.34 c -4.6,0 -6.91,-1.34 -8.06,-3.449 l -36.28,-64.121 -4.99,-10.942 -4.99,12.102 -36.28,62.961 c -1.15,2.109 -3.45,3.449 -8.06,3.449 h -6.92 c -5.37,0 -7.67,-1.539 -7.67,-4.219 V 852.09 c 0,-2.692 2.3,-4.219 7.67,-4.219 h 1.35 c 5.37,0 7.68,1.527 7.68,4.219 v 104.422 l 39.16,-68.344 c 0.95,-1.719 2.3,-2.488 4.21,-2.488 h 7.69 c 2.11,0 3.26,0.769 4.22,2.488 l 38.58,67.191 V 852.09 c 0,-2.692 2.31,-4.219 7.68,-4.219 h 1.35 c 5.37,0 7.67,1.527 7.67,4.219 v 126.691 c 0,2.68 -2.3,4.219 -7.67,4.219"
         style="fill:#1d1b19;fill-opacity:1;fill-rule:nonzero;stroke:none"
         id="path112" />
      <path
         d="m 5752.2,935.969 c 15.36,0 23.03,-10.168 23.03,-30.328 h -49.91 c 1.35,20.16 10.18,30.328 26.88,30.328 z m 37.43,-76.59 c 0,2.109 -4.04,9.601 -6.72,9.601 -1.92,0 -11.33,-8.07 -28.03,-8.07 -19,0 -28.03,9.602 -29.56,30.91 h 60.67 c 2.29,0 6.32,5.571 6.32,7.871 0,32.629 -13.24,50.098 -39.54,50.098 -29.36,0 -44.72,-18.051 -44.72,-52.019 0,-34.36 15.16,-50.668 47.03,-50.668 19.38,0 34.55,7.668 34.55,12.277"
         style="fill:#1d1b19;fill-opacity:1;fill-rule:nonzero;stroke:none"
         id="path114" />
      <path
         d="m 5877.31,874.352 c -7.87,-8.633 -17.47,-13.243 -25.9,-13.243 -15.17,0 -23.62,14.012 -23.62,38.782 0,22.839 8.63,35.308 25.91,35.699 8.64,0 16.71,-2.879 23.61,-8.641 z m 8.45,118.25 h -0.77 c -5.37,0 -7.68,-1.543 -7.68,-4.223 v -48.367 c -7.48,5.75 -15.54,9.777 -27.45,9.777 -22.84,0 -38.96,-18.051 -38.96,-51.437 0,-29.75 14.21,-51.25 37.23,-51.25 10.95,0 21.13,4.609 30.53,14.386 1.15,-5.367 2.11,-13.437 6.72,-13.437 2.49,0 10.36,0.769 10.36,4.418 0,0.961 -2.3,8.441 -2.3,24.191 v 111.719 c 0,2.68 -2.31,4.223 -7.68,4.223"
         style="fill:#1d1b19;fill-opacity:1;fill-rule:nonzero;stroke:none"
         id="path116" />
      <path
         d="m 5943.69,977.051 v 11.328 c 0,2.68 -2.29,4.223 -7.68,4.223 h -2.3 c -5.37,0 -7.68,-1.543 -7.68,-4.223 v -11.328 c 0,-2.692 2.31,-4.223 7.68,-4.223 h 2.3 c 5.39,0 7.68,1.531 7.68,4.223"
         style="fill:#1d1b19;fill-opacity:1;fill-rule:nonzero;stroke:none"
         id="path118" />
      <path
         d="m 5934.48,949.031 c -5.37,0 -7.68,-1.543 -7.68,-4.23 V 852.09 c 0,-2.692 2.31,-4.219 7.68,-4.219 h 0.77 c 5.37,0 7.68,1.527 7.68,4.219 v 92.711 c 0,2.687 -2.31,4.23 -7.68,4.23 h -0.77"
         style="fill:#1d1b19;fill-opacity:1;fill-rule:nonzero;stroke:none"
         id="path120" />
      <path
         d="m 5983.03,949.031 h -0.78 c -5.37,0 -7.67,-1.543 -7.67,-4.23 v -66.61 c 0,-19.39 11.71,-31.089 31.29,-31.089 10.75,0 21.88,5.367 29.95,14.386 1.14,-5.367 2.11,-13.437 6.72,-13.437 2.49,0 10.36,0.769 10.36,4.418 0,0.961 -2.31,8.441 -2.31,24.191 v 68.141 c 0,2.687 -2.3,4.23 -7.67,4.23 h -0.77 c -5.37,0 -7.68,-1.543 -7.68,-4.23 v -70.25 c -6.34,-8.262 -15.55,-13.442 -24.19,-13.442 -12.47,0 -19.58,6.911 -19.58,18.621 v 65.071 c 0,2.687 -2.3,4.23 -7.67,4.23"
         style="fill:#1d1b19;fill-opacity:1;fill-rule:nonzero;stroke:none"
         id="path122" />
      <path
         d="m 6185.31,949.789 c -12.09,0 -23.22,-7.289 -30.52,-15.93 -5.37,13.051 -18.04,15.93 -27.45,15.93 -12.28,0 -22.84,-7.098 -29.18,-14.391 -1.15,4.993 -2.11,12.661 -6.72,12.661 -2.49,0 -10.36,-0.758 -10.36,-4.411 0,-0.957 2.31,-8.449 2.31,-24.187 V 852.09 c 0,-2.692 2.3,-4.219 7.67,-4.219 h 0.77 c 5.38,0 7.68,1.527 7.68,4.219 v 70.441 c 0,0 9.4,13.25 23.42,13.25 12.28,0 18.43,-7.301 18.43,-18.621 v -65.07 c 0,-2.692 2.3,-4.219 7.67,-4.219 h 0.77 c 5.37,0 7.68,1.527 7.68,4.219 v 66.41 c 0,1.148 0,2.5 -0.2,3.84 3.08,3.648 11.91,13.441 23.62,13.441 12.28,0 18.42,-7.301 18.42,-18.621 v -65.07 c 0,-2.692 2.31,-4.219 7.68,-4.219 h 0.77 c 5.37,0 7.68,1.527 7.68,4.219 v 66.609 c 0,26.102 -17.85,31.09 -30.14,31.09"
         style="fill:#1d1b19;fill-opacity:1;fill-rule:nonzero;stroke:none"
         id="path124" />
      <path
         d="m 7405.99,860.898 c 0,2.313 -4.22,10.383 -6.71,10.383 -2.5,0 -13.26,-9.601 -33.02,-9.601 -30.14,0 -44.35,16.699 -44.35,53.55 0,37.809 14.4,53.942 45.11,53.942 18.43,0 27.65,-8.442 29.76,-8.442 2.5,0 6.52,7.86 6.52,11.129 0,5.18 -17.66,11.903 -36.66,11.903 -41.07,0 -62.2,-22.461 -62.2,-68.332 0,-46.84 19.78,-68.34 61.82,-68.34 22.46,0 39.73,8.64 39.73,13.808"
         style="fill:#1d1b19;fill-opacity:1;fill-rule:nonzero;stroke:none"
         id="path126" />
      <path
         d="m 7439.74,898.34 c 0,25.719 8.44,37.621 27.06,37.621 18.81,0 27.45,-12.09 27.45,-37.621 0,-25.531 -8.64,-37.442 -27.45,-37.442 -18.81,0 -27.06,11.911 -27.06,37.442 z m 71.21,-0.379 c 0,33.391 -15.36,51.82 -43.58,51.82 -28.59,0 -44.53,-18.621 -44.53,-51.82 0,-33.02 15.55,-50.871 44.53,-50.871 28.61,0 43.58,17.648 43.58,50.871"
         style="fill:#1d1b19;fill-opacity:1;fill-rule:nonzero;stroke:none"
         id="path128" />
      <path
         d="m 7594.61,874.34 c -7.68,-6.899 -16.12,-13.238 -30.14,-13.238 -10.75,0 -16.32,5.57 -16.32,15.738 0,19.961 26.5,19.961 46.46,20.16 z m -63.73,1.551 c 0,-19.782 14.21,-28.801 32.82,-28.801 14.4,0 24.96,6.328 32.26,14.39 1.15,-5.371 2.11,-13.441 6.71,-13.441 2.49,0 10.37,0.77 10.37,4.422 0,0.957 -2.31,8.437 -2.31,24.187 v 42.993 c 0,19.007 -14.01,30.14 -37.81,30.14 -19.2,0 -36.1,-7.293 -36.1,-12.281 0,-2.109 4.04,-9.602 6.72,-9.602 1.93,0 12.48,8.063 29.95,8.063 15.93,0 21.12,-7.492 21.12,-16.121 v -9.02 c -29.37,-0.39 -63.73,-2.5 -63.73,-34.929"
         style="fill:#1d1b19;fill-opacity:1;fill-rule:nonzero;stroke:none"
         id="path130" />
      <path
         d="m 7651,847.859 h 0.78 c 5.37,0 7.67,1.532 7.67,4.219 v 70.25 c 0,0 7.68,11.711 17.67,11.711 6.52,0 8.05,-2.109 10.55,-2.109 2.31,0 3.84,6.718 3.84,10.371 0,4.219 -3.65,7.48 -11.13,7.48 -8.07,0 -15.74,-5.179 -22.27,-14.39 -1.15,4.988 -2.12,12.66 -6.71,12.66 -2.5,0 -10.38,-0.762 -10.38,-4.41 0,-0.961 2.31,-8.45 2.31,-24.192 v -67.371 c 0,-2.687 2.3,-4.219 7.67,-4.219"
         style="fill:#1d1b19;fill-opacity:1;fill-rule:nonzero;stroke:none"
         id="path132" />
      <path
         d="m 7732.37,860.52 c -13.62,0 -21.3,7.679 -22.65,7.679 -2.68,0 -6.71,-7.48 -6.71,-9.597 0,-4.422 13.05,-12.09 30.51,-12.09 19.01,0 33.98,12.668 33.98,29.937 0,17.473 -7.1,23.813 -30.71,31.102 -10.75,3.269 -14.97,8.058 -14.97,16.699 0,7.48 7.48,12.09 17.09,12.09 10.36,0 16.5,-4.988 17.46,-4.988 2.5,0 6.14,7.296 6.14,10.367 0,4.222 -12.29,8.261 -25.33,8.261 -18.63,0 -31.87,-11.71 -31.87,-27.839 0,-14.403 5.95,-22.653 26.68,-28.789 14.39,-4.223 19.2,-8.641 19.2,-17.282 0,-10.558 -6.53,-15.55 -18.82,-15.55"
         style="fill:#1d1b19;fill-opacity:1;fill-rule:nonzero;stroke:none"
         id="path134" />
      <path
         d="m 7803.37,905.629 c 1.34,20.16 10.17,30.332 26.87,30.332 15.36,0 23.04,-10.172 23.04,-30.332 z m 66.99,-5.949 c 0,32.629 -13.24,50.101 -39.54,50.101 -29.37,0 -44.73,-18.051 -44.73,-52.019 0,-34.364 15.17,-50.672 47.03,-50.672 19.39,0 34.55,7.672 34.55,12.281 0,2.109 -4.03,9.598 -6.71,9.598 -1.93,0 -11.33,-8.071 -28.03,-8.071 -19.01,0 -28.03,9.602 -29.56,30.911 h 60.66 c 2.3,0 6.33,5.57 6.33,7.871"
         style="fill:#1d1b19;fill-opacity:1;fill-rule:nonzero;stroke:none"
         id="path136" />
      <path
         d="M 8286.23,1346.11 H 150.031 c -5.554,0 -10.062,-4.5 -10.062,-10.06 0,-5.56 4.508,-10.06 10.062,-10.06 h 42.207 v -166.92 c 0,-5.56 4.508,-10.06 10.067,-10.06 5.554,0 10.062,4.5 10.062,10.06 v 166.92 h 924.583 v -166.92 c 0,-5.56 4.51,-10.06 10.07,-10.06 5.55,0 10.06,4.5 10.06,10.06 v 166.92 h 1847.11 v -166.92 c 0,-5.56 4.5,-10.06 10.06,-10.06 5.55,0 10.06,4.5 10.06,10.06 v 166.92 h 1584.04 v -166.92 c 0,-5.56 4.5,-10.06 10.06,-10.06 5.55,0 10.05,4.5 10.05,10.06 v 166.92 H 6966.4 v -166.92 c 0,-5.56 4.5,-10.06 10.05,-10.06 5.56,0 10.06,4.5 10.06,10.06 v 166.92 h 1232.85 v -166.92 c 0,-5.56 4.51,-10.06 10.06,-10.06 5.56,0 10.06,4.5 10.06,10.06 v 166.92 h 46.75 c 5.56,0 10.06,4.5 10.06,10.06 0,5.56 -4.5,10.06 -10.06,10.06"
         style="fill:#1d1b19;fill-opacity:1;fill-rule:nonzero;stroke:none"
         id="path138" />
      <path
         d="m 2683.75,3609.08 c 0,-7.5 -10.31,-25.32 -16.89,-25.32 -3.75,0 -16.88,11.57 -46.89,11.57 -41.58,0 -60.97,-24.7 -60.97,-76.92 0,-51.58 19.39,-76.91 60.03,-76.91 30.64,0 47.83,13.45 52.21,13.45 7.82,0 15.95,-18.45 15.95,-23.45 0,-15.01 -38.77,-24.7 -68.16,-24.7 -69.41,0 -101.92,35.01 -101.92,111.93 0,74.72 34.7,111.3 103.17,111.3 28.76,0 63.47,-9.38 63.47,-20.95"
         style="fill:#1d1b19;fill-opacity:1;fill-rule:nonzero;stroke:none"
         id="path140" />
      <path
         d="m 2752.51,3518.73 c 0,-50.34 19.7,-77.23 57.22,-77.23 37.2,0 56.9,26.89 56.9,77.23 0,50.02 -19.7,76.6 -56.9,76.6 -37.52,0 -57.22,-26.58 -57.22,-76.6 z m 155.7,0 c 0,-72.54 -35.02,-111.93 -98.8,-111.93 -63.78,0 -98.8,39.39 -98.8,111.93 0,72.53 35.02,111.3 98.8,111.3 63.78,0 98.8,-38.77 98.8,-111.3"
         style="fill:#1d1b19;fill-opacity:1;fill-rule:nonzero;stroke:none"
         id="path142" />
      <path
         d="m 3070.45,3614.4 v -7.82 c 0,-9.38 -2.5,-13.44 -8.44,-13.44 h -72.85 v -55.03 h 69.41 c 5.94,0 8.44,-4.06 8.44,-13.44 v -7.82 c 0,-9.38 -2.5,-13.45 -8.44,-13.45 h -69.41 v -86.29 c 0,-5.63 -5,-8.75 -16.57,-8.75 h -7.5 c -11.58,0 -16.58,3.12 -16.58,8.75 v 199.48 c 0,7.82 3.44,11.25 11.26,11.25 h 102.24 c 5.94,0 8.44,-4.07 8.44,-13.44"
         style="fill:#1d1b19;fill-opacity:1;fill-rule:nonzero;stroke:none"
         id="path144" />
      <path
         d="m 3227.69,3614.4 v -7.82 c 0,-9.38 -2.5,-13.44 -8.43,-13.44 h -72.85 v -55.03 h 69.41 c 5.94,0 8.44,-4.06 8.44,-13.44 v -7.82 c 0,-9.38 -2.5,-13.45 -8.44,-13.45 h -69.41 v -86.29 c 0,-5.63 -5,-8.75 -16.58,-8.75 h -7.5 c -11.57,0 -16.57,3.12 -16.57,8.75 v 199.48 c 0,7.82 3.44,11.25 11.26,11.25 h 102.24 c 5.93,0 8.43,-4.07 8.43,-13.44"
         style="fill:#1d1b19;fill-opacity:1;fill-rule:nonzero;stroke:none"
         id="path146" />
      <path
         d="m 3395.26,3614.4 v -7.82 c 0,-9.38 -2.5,-13.44 -8.44,-13.44 h -83.17 v -54.71 h 74.42 c 5.93,0 8.12,-4.07 8.12,-13.45 v -7.82 c 0,-9.37 -2.19,-13.44 -8.12,-13.44 h -74.42 v -60.03 h 83.48 c 5.95,0 8.45,-4.06 8.45,-13.44 v -7.82 c 0,-9.38 -2.5,-13.45 -8.45,-13.45 h -112.86 c -7.83,0 -11.26,3.44 -11.26,11.26 v 196.35 c 0,7.82 3.43,11.25 11.26,11.25 h 112.55 c 5.94,0 8.44,-4.07 8.44,-13.44"
         style="fill:#1d1b19;fill-opacity:1;fill-rule:nonzero;stroke:none"
         id="path148" />
      <path
         d="m 3565.95,3614.4 v -7.82 c 0,-9.38 -2.5,-13.44 -8.45,-13.44 h -83.17 v -54.71 h 74.42 c 5.94,0 8.12,-4.07 8.12,-13.45 v -7.82 c 0,-9.37 -2.18,-13.44 -8.12,-13.44 h -74.42 v -60.03 h 83.48 c 5.95,0 8.45,-4.06 8.45,-13.44 v -7.82 c 0,-9.38 -2.5,-13.45 -8.45,-13.45 h -112.86 c -7.82,0 -11.26,3.44 -11.26,11.26 v 196.35 c 0,7.82 3.44,11.25 11.26,11.25 h 112.55 c 5.95,0 8.45,-4.07 8.45,-13.44"
         style="fill:#1d1b19;fill-opacity:1;fill-rule:nonzero;stroke:none"
         id="path150" />
      <path
         d="m 3837.61,3609.08 c 0,-7.5 -10.32,-25.32 -16.89,-25.32 -3.44,0 -17.82,11.57 -47.83,11.57 -43.46,0 -60.97,-26.89 -60.97,-76.29 0,-47.21 16.26,-77.54 59.41,-77.54 11.56,0 21.57,0.94 30.01,2.82 v 48.14 h -30.64 c -5.95,0 -8.13,4.07 -8.13,13.45 v 8.13 c 0,9.37 2.18,13.44 8.13,13.44 h 60.34 c 7.82,0 11.25,-3.44 11.25,-11.57 v -85.35 c 0,-20.01 -44.7,-23.76 -71.59,-23.76 -67.22,0 -100.67,35.01 -100.67,111.3 0,75.66 35.33,111.93 103.17,111.93 28.76,0 64.41,-9.38 64.41,-20.95"
         style="fill:#1d1b19;fill-opacity:1;fill-rule:nonzero;stroke:none"
         id="path152" />
      <path
         d="m 3930.13,3593.14 v -59.41 h 33.77 c 16.57,0 30.01,14.07 30.01,30.96 0,18.44 -12.5,28.45 -32.2,28.45 z m 105.68,-22.83 c 0,-25.01 -14.7,-42.52 -36.58,-50.96 v -1.25 c 10,-3.44 18.44,-16.26 24.69,-32.51 l 26.26,-65.98 c 0.94,-2.5 1.57,-4.06 1.57,-5.31 0,-3.75 -5.32,-5.94 -16.88,-5.94 h -9.38 c -7.82,0 -14.39,1.56 -15.95,5.94 l -24.38,61.28 c -7.5,16.57 -15.33,22.82 -36.9,22.82 h -18.13 v -81.29 c 0,-5.63 -5,-8.75 -16.58,-8.75 h -7.5 c -11.57,0 -16.57,3.12 -16.57,8.75 v 199.48 c 0,7.82 3.44,11.25 11.26,11.25 h 58.16 c 51.89,0 76.91,-19.38 76.91,-57.53"
         style="fill:#1d1b19;fill-opacity:1;fill-rule:nonzero;stroke:none"
         id="path154" />
      <path
         d="m 4119.88,3619.71 v -202.6 c 0,-5.63 -5,-9.06 -16.57,-9.06 h -7.81 c -11.58,0 -16.58,3.43 -16.58,9.06 v 202.6 c 0,5.63 5,9.07 16.58,9.07 h 7.81 c 11.57,0 16.57,-3.44 16.57,-9.07"
         style="fill:#1d1b19;fill-opacity:1;fill-rule:nonzero;stroke:none"
         id="path156" />
      <path
         d="m 4344.67,3619.71 v -202.6 c 0,-5.63 -5,-8.75 -16.58,-8.75 h -9.68 c -8.14,0 -13.45,1.25 -17.2,6.88 l -94.11,144.13 v -142.26 c 0,-5.63 -4.69,-8.75 -16.26,-8.75 h -6.56 c -11.58,0 -16.58,3.12 -16.58,8.75 v 202.6 c 0,5.63 5,8.76 16.58,8.76 h 10.94 c 8.13,0 13.75,-1.25 17.81,-7.51 l 91.93,-141.63 v 140.38 c 0,5.63 5,8.76 16.57,8.76 h 6.56 c 11.58,0 16.58,-3.13 16.58,-8.76"
         style="fill:#1d1b19;fill-opacity:1;fill-rule:nonzero;stroke:none"
         id="path158" />
      <path
         d="m 4434.06,3593.14 v -149.45 h 37.21 c 35.64,0 57.84,23.76 57.84,74.72 0,50.97 -22.2,74.73 -57.84,74.73 z m 136.63,-74.73 c 0,-74.41 -38.14,-109.43 -98.8,-109.43 h -67.53 c -7.82,0 -11.26,3.44 -11.26,11.26 v 196.35 c 0,7.82 3.44,11.25 11.26,11.25 h 67.53 c 60.66,0 98.8,-35.02 98.8,-109.43"
         style="fill:#1d1b19;fill-opacity:1;fill-rule:nonzero;stroke:none"
         id="path160" />
      <path
         d="m 4650.08,3619.71 v -202.6 c 0,-5.63 -5,-9.06 -16.58,-9.06 h -7.81 c -11.57,0 -16.57,3.43 -16.57,9.06 v 202.6 c 0,5.63 5,9.07 16.57,9.07 h 7.81 c 11.58,0 16.58,-3.44 16.58,-9.07"
         style="fill:#1d1b19;fill-opacity:1;fill-rule:nonzero;stroke:none"
         id="path162" />
      <path
         d="m 4874.86,3619.71 v -202.6 c 0,-5.63 -5,-8.75 -16.57,-8.75 h -9.69 c -8.13,0 -13.44,1.25 -17.19,6.88 l -94.12,144.13 v -142.26 c 0,-5.63 -4.68,-8.75 -16.26,-8.75 h -6.56 c -11.57,0 -16.57,3.12 -16.57,8.75 v 202.6 c 0,5.63 5,8.76 16.57,8.76 h 10.95 c 8.12,0 13.75,-1.25 17.81,-7.51 l 91.93,-141.63 v 140.38 c 0,5.63 5,8.76 16.57,8.76 h 6.56 c 11.57,0 16.57,-3.13 16.57,-8.76"
         style="fill:#1d1b19;fill-opacity:1;fill-rule:nonzero;stroke:none"
         id="path164" />
      <path
         d="m 5081.5,3609.08 c 0,-7.5 -10.31,-25.32 -16.88,-25.32 -3.44,0 -17.82,11.57 -47.84,11.57 -43.45,0 -60.96,-26.89 -60.96,-76.29 0,-47.21 16.26,-77.54 59.4,-77.54 11.56,0 21.58,0.94 30.01,2.82 v 48.14 h -30.63 c -5.94,0 -8.14,4.07 -8.14,13.45 v 8.13 c 0,9.37 2.2,13.44 8.14,13.44 h 60.34 c 7.81,0 11.25,-3.44 11.25,-11.57 v -85.35 c 0,-20.01 -44.71,-23.76 -71.59,-23.76 -67.23,0 -100.68,35.01 -100.68,111.3 0,75.66 35.34,111.93 103.18,111.93 28.76,0 64.4,-9.38 64.4,-20.95"
         style="fill:#1d1b19;fill-opacity:1;fill-rule:nonzero;stroke:none"
         id="path166" />
      <path
         d="m 5322.84,3609.39 c 0,-7.19 -8.44,-23.44 -14.38,-23.44 -4.38,0 -14.7,9.38 -37.21,9.38 -24.07,0 -33.14,-11.26 -33.14,-24.08 0,-19.38 17.2,-25.32 36.9,-33.14 26.26,-10.63 57.52,-23.13 57.52,-65.66 0,-46.27 -33.14,-65.65 -70.03,-65.65 -43.46,0 -70.35,15.94 -70.35,25.63 0,8.13 10.94,24.08 16.26,24.08 5,0 21.26,-15.01 48.78,-15.01 17.19,0 33.76,7.82 33.76,27.2 0,20.95 -24.08,27.52 -47.84,37.84 -23.44,10.31 -46.58,23.44 -46.58,62.21 0,40.96 33.76,61.28 72.22,61.28 27.52,0 54.09,-10.01 54.09,-20.64"
         style="fill:#1d1b19;fill-opacity:1;fill-rule:nonzero;stroke:none"
         id="path168" />
      <path
         d="m 5404.42,3619.71 v -202.6 c 0,-5.63 -5,-9.06 -16.57,-9.06 h -7.81 c -11.58,0 -16.58,3.43 -16.58,9.06 v 202.6 c 0,5.63 5,9.07 16.58,9.07 h 7.81 c 11.57,0 16.57,-3.44 16.57,-9.07"
         style="fill:#1d1b19;fill-opacity:1;fill-rule:nonzero;stroke:none"
         id="path170" />
      <path
         d="m 5608.57,3603.45 c 0,-1.25 -0.31,-2.18 -0.62,-2.81 l -113.19,-156.95 h 105.37 c 5.63,0 8.13,-4.06 8.13,-13.76 v -7.19 c 0,-9.69 -2.5,-13.76 -8.13,-13.76 h -151.64 c -4.68,0 -10.63,15.95 -10.63,23.77 0,1.25 0.31,2.5 0.63,3.44 l 113.49,156.95 h -96.3 c -5.94,0 -8.44,4.06 -8.44,13.75 v 7.2 c 0,9.68 2.5,13.75 8.44,13.75 h 142.89 c 4.06,0 10,-16.88 10,-24.39"
         style="fill:#1d1b19;fill-opacity:1;fill-rule:nonzero;stroke:none"
         id="path172" />
      <path
         d="m 5777.69,3614.4 v -7.82 c 0,-9.38 -2.5,-13.44 -8.44,-13.44 h -83.17 v -54.71 h 74.42 c 5.93,0 8.12,-4.07 8.12,-13.45 v -7.82 c 0,-9.37 -2.19,-13.44 -8.12,-13.44 h -74.42 v -60.03 h 83.48 c 5.95,0 8.45,-4.06 8.45,-13.44 v -7.82 c 0,-9.38 -2.5,-13.45 -8.45,-13.45 H 5656.7 c -7.82,0 -11.26,3.44 -11.26,11.26 v 196.35 c 0,7.82 3.44,11.25 11.26,11.25 h 112.55 c 5.94,0 8.44,-4.07 8.44,-13.44"
         style="fill:#1d1b19;fill-opacity:1;fill-rule:nonzero;stroke:none"
         id="path174" />
    </g>
  </g>
</svg>
